<svg width="192" height="192" viewBox="0 0 192 192" fill="none" xmlns="http://www.w3.org/2000/svg">
<rect width="192" height="192" rx="24" fill="#0E1318"/>
<!-- Inner decorative circle (symbolic: circular, 24 solar terms) -->
<circle cx="96" cy="96" r="68" fill="none" stroke="#3A4654" stroke-width="1.5"/>
<circle cx="96" cy="96" r="52" fill="none" stroke="#3A4654" stroke-width="1"/>
<!-- Center 顺 character in gold -->
<text x="96" y="120" font-family="serif" font-size="64" font-weight="700" fill="#D4A843" text-anchor="middle">顺</text>
<!-- 24 small dots around the outer circle -->
<circle cx="96" cy="28" r="3" fill="#D4A843"/>
<circle cx="124" cy="34" r="2.5" fill="#7D8B99"/>
<circle cx="151" cy="45" r="2.5" fill="#7D8B99"/>
<circle cx="168" cy="65" r="2.5" fill="#7D8B99"/>
<circle cx="172" cy="96" r="3" fill="#D4A843"/>
<circle cx="168" cy="127" r="2.5" fill="#7D8B99"/>
<circle cx="151" cy="147" r="2.5" fill="#7D8B99"/>
<circle cx="124" cy="158" r="2.5" fill="#7D8B99"/>
<circle cx="96" cy="164" r="3" fill="#D4A843"/>
<circle cx="68" cy="158" r="2.5" fill="#7D8B99"/>
<circle cx="41" cy="147" r="2.5" fill="#7D8B99"/>
<circle cx="24" cy="127" r="2.5" fill="#7D8B99"/>
<circle cx="20" cy="96" r="3" fill="#D4A843"/>
<circle cx="24" cy="65" r="2.5" fill="#7D8B99"/>
<circle cx="41" cy="45" r="2.5" fill="#7D8B99"/>
<circle cx="68" cy="34" r="2.5" fill="#7D8B99"/>
</svg>
